<svg xmlns="http://www.w3.org/2000/svg" version="1.1" xmlns:xlink="http://www.w3.org/1999/xlink" width="1000" height="1000"><g clip-path="url(#SvgjsClipPath1026)"><rect width="1000" height="1000" fill="#ffffff"></rect><g transform="matrix(1.0479041916167664,0,0,1.0479041916167664,150,150)"><svg xmlns="http://www.w3.org/2000/svg" version="1.1" xmlns:xlink="http://www.w3.org/1999/xlink" width="668" height="668"><svg width="668" height="668" viewBox="0 0 176.74166 176.74167" version="1.1" id="svg1" inkscape:version="1.4.2 (ebf0e940d0, 2025-05-08)" sodipodi:docname="karin.svg" inkscape:export-filename="karin.svg" inkscape:export-xdpi="96" inkscape:export-ydpi="96" xmlns:inkscape="http://www.inkscape.org/namespaces/inkscape" xmlns:sodipodi="http://sodipodi.sourceforge.net/DTD/sodipodi-0.dtd" xmlns="http://www.w3.org/2000/svg" xmlns:svg="http://www.w3.org/2000/svg">
  <sodipodi:namedview id="namedview1" pagecolor="#505050" bordercolor="#ffffff" borderopacity="1" inkscape:showpageshadow="0" inkscape:pageopacity="0" inkscape:pagecheckerboard="1" inkscape:deskcolor="#505050" inkscape:document-units="mm" inkscape:zoom="1.1893651" inkscape:cx="385.4998" inkscape:cy="250.55385" inkscape:window-width="1896" inkscape:window-height="1017" inkscape:window-x="0" inkscape:window-y="0" inkscape:window-maximized="1" inkscape:current-layer="layer1"></sodipodi:namedview>
  <defs id="defs1"><clipPath id="SvgjsClipPath1026"><rect width="1000" height="1000" x="0" y="0" rx="350" ry="350"></rect></clipPath></defs>
  <g inkscape:label="Capa 1" inkscape:groupmode="layer" id="layer1">
    <g id="path7" style="opacity:1;fill:#000000;fill-opacity:1;stroke:none" transform="translate(-33.428047,-85.350106)">
      <path id="path8" style="baseline-shift:baseline;display:inline;overflow:visible;vector-effect:none;fill:#20f5e2;fill-opacity:1;stroke:none;enable-background:accumulate;stop-color:#000000;stop-opacity:1" d="M 180.72457,239.0408 120.55666,189.40817 83.785782,253.0973 c 11.513022,5.51288 24.391078,8.60361 37.966158,8.60361 22.62453,0 43.31238,-8.58366 58.97263,-22.66011 z"></path>
      <path id="path15" style="baseline-shift:baseline;display:inline;overflow:visible;vector-effect:none;fill:#20f5e2;fill-opacity:1;stroke:none;enable-background:accumulate;stop-color:#000000;stop-opacity:1" d="m 171.8202,100.61824 -34.4966,59.74932 63.48243,52.3658 c 5.94834,-11.87055 9.29969,-25.25106 9.29969,-39.38778 0,-30.09388 -15.18615,-56.76062 -38.28552,-72.72734 z"></path>
      <path id="path14" style="baseline-shift:baseline;display:inline;overflow:visible;vector-effect:none;fill:#000000;fill-opacity:1;stroke:none;enable-background:accumulate;stop-color:#000000;stop-opacity:1" d="m 141.37917,87.196836 c -6.31598,-1.442498 -12.88552,-2.204517 -19.62723,-2.204517 -48.655911,-10e-7 -88.355329,39.697351 -88.355331,88.353261 -10e-7,23.12449 8.96704,44.22606 23.601144,60.00409 z"></path>
      <path id="path13" style="baseline-shift:baseline;display:inline;overflow:visible;vector-effect:none;fill:#ffffff;fill-opacity:1;stroke:none;enable-background:accumulate;stop-color:#000000;stop-opacity:1" d="M 141.37917,87.196836 56.997753,233.34967 c 7.566454,8.15792 16.647855,14.89213 26.788029,19.74763 l 36.770878,-63.68913 60.16791,49.63263 c 8.23325,-7.40059 15.07651,-16.31953 20.08146,-26.30744 l -63.48243,-52.3658 34.4966,-59.74932 c -9.073,-6.271433 -19.36716,-10.892258 -30.44103,-13.421404 z"></path>
    </g>
  </g>
</svg></svg></g></g></svg>